<svg width="18" height="22" viewBox="0 0 18 22" fill="none" xmlns="http://www.w3.org/2000/svg">
<rect x="0.7" y="-0.7" width="10.6" height="11.6" rx="3.3" transform="matrix(1 0 0 -1 3 11.6)" stroke="black" stroke-width="1.4"/>
<rect y="5" width="18" height="17" fill="black"/>
<path d="M6.86195 17V16.38L9.36195 13.77C9.68862 13.43 9.93195 13.1067 10.092 12.8C10.2586 12.4867 10.342 12.1633 10.342 11.83C10.342 11.4233 10.2153 11.1167 9.96195 10.91C9.70862 10.6967 9.34195 10.59 8.86195 10.59C8.48862 10.59 8.14195 10.6567 7.82195 10.79C7.50862 10.9167 7.20529 11.12 6.91195 11.4L6.61195 10.75C6.87862 10.4833 7.21862 10.27 7.63195 10.11C8.04529 9.94333 8.48195 9.86 8.94195 9.86C9.65529 9.86 10.2053 10.0267 10.592 10.36C10.9786 10.6867 11.172 11.1533 11.172 11.76C11.172 12.2067 11.062 12.6333 10.842 13.04C10.6286 13.44 10.3153 13.8533 9.90195 14.28L7.69195 16.52V16.29H11.472V17H6.86195Z" fill="white"/>
<path d="M6.86195 17H6.66195V17.2H6.86195V17ZM6.86195 16.38L6.71752 16.2417L6.66195 16.2997V16.38H6.86195ZM9.36195 13.77L9.21773 13.6314L9.21752 13.6317L9.36195 13.77ZM10.092 12.8L9.91537 12.7061L9.91464 12.7075L10.092 12.8ZM9.96195 10.91L9.83311 11.063L9.83553 11.065L9.96195 10.91ZM7.82195 10.79L7.89692 10.9754L7.89888 10.9746L7.82195 10.79ZM6.91195 11.4L6.73036 11.4838L6.84763 11.7379L7.05005 11.5447L6.91195 11.4ZM6.61195 10.75L6.47053 10.6086L6.37192 10.7072L6.43036 10.8338L6.61195 10.75ZM7.63195 10.11L7.70416 10.2965L7.70675 10.2955L7.63195 10.11ZM10.592 10.36L10.4614 10.5115L10.4629 10.5128L10.592 10.36ZM10.842 13.04L10.666 12.9448L10.6655 12.9459L10.842 13.04ZM9.90195 14.28L10.0443 14.4205L10.0456 14.4192L9.90195 14.28ZM7.69195 16.52H7.49195V17.0075L7.83432 16.6605L7.69195 16.52ZM7.69195 16.29V16.09H7.49195V16.29H7.69195ZM11.472 16.29H11.672V16.09H11.472V16.29ZM11.472 17V17.2H11.672V17H11.472ZM7.06195 17V16.38H6.66195V17H7.06195ZM7.00639 16.5183L9.50639 13.9083L9.21752 13.6317L6.71752 16.2417L7.00639 16.5183ZM9.50617 13.9086C9.84158 13.5595 10.098 13.2209 10.2693 12.8925L9.91464 12.7075C9.76596 12.9925 9.53566 13.3005 9.21773 13.6314L9.50617 13.9086ZM10.2685 12.8939C10.4496 12.5536 10.542 12.1982 10.542 11.83H10.142C10.142 12.1285 10.0677 12.4197 9.91538 12.7061L10.2685 12.8939ZM10.542 11.83C10.542 11.3793 10.3994 11.0088 10.0884 10.755L9.83553 11.065C10.0312 11.2246 10.142 11.4674 10.142 11.83H10.542ZM10.0908 10.757C9.78821 10.5022 9.36839 10.39 8.86195 10.39V10.79C9.31551 10.79 9.62903 10.8911 9.83313 11.063L10.0908 10.757ZM8.86195 10.39C8.46427 10.39 8.09123 10.4611 7.74503 10.6054L7.89888 10.9746C8.19268 10.8522 8.51297 10.79 8.86195 10.79V10.39ZM7.747 10.6046C7.40606 10.7424 7.08191 10.9613 6.77386 11.2553L7.05005 11.5447C7.32867 11.2787 7.61118 11.0909 7.89691 10.9754L7.747 10.6046ZM7.09355 11.3162L6.79355 10.6662L6.43036 10.8338L6.73036 11.4838L7.09355 11.3162ZM6.75337 10.8914C6.99721 10.6476 7.31228 10.4482 7.70415 10.2965L7.55975 9.92349C7.12496 10.0918 6.76003 10.3191 6.47053 10.6086L6.75337 10.8914ZM7.70675 10.2955C8.09554 10.1387 8.50674 10.06 8.94195 10.06V9.66C8.45716 9.66 7.99503 9.74795 7.55716 9.92451L7.70675 10.2955ZM8.94195 10.06C9.62628 10.06 10.1232 10.2199 10.4614 10.5115L10.7225 10.2085C10.2874 9.83341 9.68429 9.66 8.94195 9.66V10.06ZM10.4629 10.5128C10.7956 10.7939 10.972 11.1993 10.972 11.76H11.372C11.372 11.1073 11.1617 10.5795 10.721 10.2072L10.4629 10.5128ZM10.972 11.76C10.972 12.1722 10.8708 12.5663 10.666 12.9448L11.0179 13.1352C11.2531 12.7003 11.372 12.2411 11.372 11.76H10.972ZM10.6655 12.9459C10.4632 13.3252 10.1624 13.7237 9.75831 14.1408L10.0456 14.4192C10.4681 13.983 10.7941 13.5548 11.0184 13.1341L10.6655 12.9459ZM9.75958 14.1395L7.54958 16.3795L7.83432 16.6605L10.0443 14.4205L9.75958 14.1395ZM7.89195 16.52V16.29H7.49195V16.52H7.89195ZM7.69195 16.49H11.472V16.09H7.69195V16.49ZM11.272 16.29V17H11.672V16.29H11.272ZM11.472 16.8H6.86195V17.2H11.472V16.8Z" fill="white"/>
</svg>
